<svg width="47" height="46" viewBox="0 0 47 46" fill="none" xmlns="http://www.w3.org/2000/svg">
<path fill-rule="evenodd" clip-rule="evenodd" d="M19.8923 37.9438C9.27809 32.6989 3.21918 23.6023 5.91735 12.6756C9.15141 -0.421197 15.4177 15.9857 23.9411 10.2798C32.4645 4.57397 46.6601 8.46934 43.6383 23.6431C40.8095 37.8476 30.5066 43.1888 19.8923 37.9438Z" fill="#5FD788"/>
<path d="M16.9489 23.2772H30.7104V30.7435H32.0865V18.7974C32.0856 18.0054 31.7953 17.2465 31.2796 16.6865C30.7635 16.1269 30.0641 15.8119 29.3342 15.8109H28.6462V14.3176H29.3342C29.5167 14.3176 29.6918 14.239 29.8208 14.099C29.9498 13.959 30.0223 13.769 30.0223 13.571V9.0912C30.0223 8.89321 29.9498 8.70321 29.8208 8.56322C29.6918 8.42323 29.5167 8.34456 29.3342 8.34456H26.5819V3.86478C26.5819 2.79782 26.0573 1.81184 25.2058 1.27828C24.3543 0.744969 23.305 0.744969 22.4535 1.27828C21.602 1.81192 21.0774 2.79791 21.0774 3.86478V8.34456H18.3251C17.9451 8.34456 17.637 8.67888 17.637 9.0912V13.571C17.637 13.769 17.7095 13.959 17.8385 14.099C17.9675 14.2389 18.1426 14.3176 18.3251 14.3176H19.0131V15.8109H18.3251C17.5952 15.8119 16.8957 16.1269 16.3797 16.6865C15.864 17.2465 15.5737 18.0055 15.5728 18.7974V37.4632H16.9489V23.2772ZM22.4535 3.86478C22.4535 3.33114 22.7158 2.83818 23.1416 2.57153C23.5673 2.30487 24.092 2.30487 24.5177 2.57153C24.9435 2.83818 25.2058 3.33115 25.2058 3.86478V8.34456H22.4535V3.86478ZM19.0131 9.83783H28.6462V12.8244H19.0131V9.83783ZM20.3893 14.3176H27.27V15.8109H20.3893V14.3176ZM18.3251 17.3041H29.3342C29.6992 17.3045 30.0487 17.4621 30.3067 17.7421C30.5648 18.0221 30.7101 18.4014 30.7104 18.7974V21.7839H16.9489V18.7974C16.9492 18.4014 17.0945 18.0221 17.3525 17.7421C17.6105 17.4621 17.9601 17.3045 18.3251 17.3041Z" fill="#424B25"/>
<path d="M42.7849 36.6508C42.655 35.8715 42.2455 35.1802 41.6463 34.7282C41.0473 34.2766 40.3073 34.1009 39.5888 34.2402L35.5258 35.0335L35.0386 32.0944H35.0383C35.006 31.8994 34.9038 31.7264 34.7539 31.6134C34.604 31.5004 34.419 31.4564 34.2393 31.4914L30.176 32.2847C29.9966 32.3197 29.8369 32.431 29.7327 32.5937C29.6286 32.756 29.5884 32.957 29.6206 33.152L29.7423 33.8866L27.7106 34.2833H27.7109C27.3368 34.3563 27.0883 34.7446 27.1555 35.1502L27.4031 36.6435L9.20571 40.8799C8.52071 41.0392 7.95333 41.5569 7.69069 42.2618C7.42836 42.9668 7.50546 43.7668 7.89619 44.3977C8.28692 45.0286 8.94057 45.408 9.64122 45.4106C9.74536 45.4106 9.84949 45.4023 9.9527 45.386L28.3703 42.4741L28.6179 43.9681H28.6176C28.6501 44.1627 28.7524 44.3357 28.9023 44.4487C29.0522 44.5617 29.2371 44.6057 29.4168 44.5707L31.4485 44.174L31.5701 44.9087C31.6024 45.1037 31.7047 45.2767 31.8546 45.3897C32.0045 45.5026 32.1897 45.5466 32.3694 45.5113L36.4324 44.718C36.8066 44.645 37.0551 44.257 36.9878 43.8511L36.5006 40.9119L40.564 40.1186C41.2822 39.9783 41.9198 39.534 42.3364 38.8836C42.7529 38.2333 42.9145 37.4301 42.7852 36.6504L42.7849 36.6508ZM9.75422 43.9085C9.36195 43.9704 8.99488 43.6841 8.92483 43.2608C8.85449 42.8375 9.10637 42.4302 9.49403 42.3402L27.6474 38.1144L28.1266 41.0039L9.75422 43.9085ZM29.8507 42.9688L28.6325 35.6205L29.9868 35.3562L31.2051 42.7045L29.8507 42.9688ZM32.8033 43.9097L31.0976 33.6224L33.8069 33.0938L35.5123 43.3811L32.8033 43.9097ZM41.2065 38.0317C40.9991 38.3576 40.68 38.58 40.3205 38.649L36.2572 39.4423L35.77 36.5031L39.833 35.7098H39.8333C40.1924 35.6398 40.5626 35.7275 40.8621 35.9535C41.1616 36.1794 41.3665 36.5254 41.431 36.9154C41.4955 37.305 41.4147 37.7067 41.2064 38.0316L41.2065 38.0317Z" fill="#424B25"/>
<path d="M23.8295 25.517C23.6255 25.517 23.432 25.6153 23.3015 25.785C22.8149 26.4173 20.3892 29.6624 20.3892 31.49C20.3892 32.8236 21.045 34.0562 22.1093 34.7229C23.1737 35.3899 24.4854 35.3899 25.5497 34.7229C26.6141 34.0563 27.2699 32.8236 27.2699 31.49C27.2699 29.6624 24.8444 26.4173 24.3576 25.785C24.227 25.6153 24.0335 25.517 23.8295 25.517H23.8295ZM25.8937 31.4901C25.8937 32.2904 25.5002 33.0297 24.8616 33.4299C24.223 33.8299 23.436 33.8299 22.7974 33.4299C22.1588 33.0296 21.7653 32.2904 21.7653 31.4901C21.7653 30.6888 22.8453 28.8548 23.8295 27.4606C24.8137 28.8548 25.8937 30.6887 25.8937 31.4901Z" fill="#424B25"/>
<path d="M27.958 24.7704H29.3342V26.2636H27.958V24.7704Z" fill="#424B25"/>
</svg>
