<svg width="39" height="10" viewBox="0 0 39 10" fill="none" xmlns="http://www.w3.org/2000/svg">
<path d="M2.8125 9H4.31836V1.81641H6.84375V0.544922H0.28125V1.81641H2.8125V9ZM9.0293 9.12305C10.8516 9.12305 12.0352 7.91016 12.0352 5.89453V5.88281C12.0352 3.87891 10.834 2.66016 9.02344 2.66016C7.21875 2.66016 6.02344 3.89062 6.02344 5.88281V5.89453C6.02344 7.9043 7.20117 9.12305 9.0293 9.12305ZM9.03516 7.94531C8.10352 7.94531 7.51172 7.20117 7.51172 5.89453V5.88281C7.51172 4.59375 8.11523 3.84375 9.02344 3.84375C9.94922 3.84375 10.5469 4.58789 10.5469 5.88281V5.89453C10.5469 7.19531 9.95508 7.94531 9.03516 7.94531ZM15.0879 9.12305C16.0254 9.12305 16.6641 8.68945 16.9863 8.02734H17.0156V9H18.4746V2.78906H17.0156V6.38672C17.0156 7.28906 16.4824 7.89258 15.6445 7.89258C14.8125 7.89258 14.4023 7.39453 14.4023 6.51562V2.78906H12.9434V6.80273C12.9434 8.24414 13.7227 9.12305 15.0879 9.12305ZM21.9844 9.12305C22.2773 9.12305 22.5352 9.09375 22.7051 9.07031V7.97461C22.6055 7.98047 22.4941 7.99805 22.3535 7.99805C21.8203 7.99805 21.5508 7.80469 21.5508 7.19531V3.91406H22.7051V2.78906H21.5508V1.21289H20.0684V2.78906H19.1895V3.91406H20.0684V7.31836C20.0684 8.5957 20.6836 9.12305 21.9844 9.12305ZM26.3203 9.12305C27.9434 9.12305 28.8574 8.16211 29.0508 7.20703L29.0684 7.14258H27.7031L27.6914 7.18359C27.5508 7.59961 27.0762 7.98633 26.3496 7.98633C25.4004 7.98633 24.8027 7.3418 24.7793 6.25195H29.127V5.7832C29.127 3.9082 28.0254 2.66016 26.25 2.66016C24.4746 2.66016 23.332 3.94922 23.332 5.90625V5.91211C23.332 7.88672 24.457 9.12305 26.3203 9.12305ZM26.2676 3.80273C27.041 3.80273 27.6035 4.29492 27.709 5.2793H24.7969C24.9141 4.32422 25.4941 3.80273 26.2676 3.80273ZM30.0703 9H31.5293V5.19727C31.5293 4.44141 32.0215 3.89062 32.7246 3.89062C33.4043 3.89062 33.8262 4.32422 33.8262 5.02148V9H35.2441V5.16211C35.2441 4.41211 35.7246 3.89062 36.4277 3.89062C37.1426 3.89062 37.541 4.33008 37.541 5.09766V9H39V4.73438C39 3.49219 38.1973 2.66016 36.9727 2.66016C36.0762 2.66016 35.3379 3.14062 35.0391 3.91406H35.0039C34.7754 3.11719 34.1484 2.66016 33.2812 2.66016C32.4609 2.66016 31.8223 3.10547 31.5586 3.78516H31.5293V2.78906H30.0703V9Z" fill="#1F2937"/>
</svg>
